<mxfile host="app.diagrams.net" modified="2023-04-13T12:16:09.024Z" agent="Mozilla/5.0 (Windows NT 10.0; Win64; x64; rv:109.0) Gecko/20100101 Firefox/111.0" version="21.1.7" etag="B7V17vaxScEKwOC4XNtC" type="github">
  <diagram name="Страница 1" id="XumWR5IVBEMeOW0FbxbN">
    <mxGraphModel>
      <root>
        <mxCell id="0" />
        <mxCell id="1" parent="0" />
      </root>
    </mxGraphModel>
  </diagram>
</mxfile>
